<?xml version="1.0" encoding="iso-8859-1"?>
<!-- Uploaded to: SVG Repo, www.svgrepo.com, Generator: SVG Repo Mixer Tools -->
<svg height="800px" width="800px" version="1.1" id="Layer_1" xmlns="http://www.w3.org/2000/svg" xmlns:xlink="http://www.w3.org/1999/xlink" 
	 viewBox="0 0 512 512" xml:space="preserve">
<g>
	<path style="fill:#FFC865;" d="M267.13,478.609v22.261c0,6.147-4.983,11.13-11.13,11.13s-11.13-4.983-11.13-11.13v-22.261
		c0-6.147,4.983-11.13,11.13-11.13S267.13,472.461,267.13,478.609z M256,0c-6.147,0-11.13,4.983-11.13,11.13v22.261
		c0,6.147,4.983,11.13,11.13,11.13s11.13-4.983,11.13-11.13V11.13C267.13,4.983,262.147,0,256,0z M500.87,244.87h-22.261
		c-6.147,0-11.13,4.983-11.13,11.13s4.983,11.13,11.13,11.13h22.261c6.147,0,11.13-4.983,11.13-11.13S507.017,244.87,500.87,244.87z
		 M33.391,244.87H11.13C4.983,244.87,0,249.853,0,256s4.983,11.13,11.13,11.13h22.261c6.147,0,11.13-4.983,11.13-11.13
		S39.539,244.87,33.391,244.87z M421.278,405.537c-4.346-4.346-11.394-4.346-15.741,0c-4.348,4.348-4.348,11.394,0,15.741
		l15.741,15.742c4.346,4.346,11.394,4.346,15.741,0s4.346-11.394,0-15.742L421.278,405.537z M90.722,74.98
		c-4.346-4.346-11.394-4.346-15.741,0c-4.346,4.346-4.346,11.394,0,15.742l15.741,15.741c4.346,4.346,11.394,4.346,15.741,0
		c4.348-4.348,4.348-11.394,0-15.741L90.722,74.98z M90.722,405.537l-15.741,15.741c-4.346,4.346-4.346,11.394,0,15.742
		c4.346,4.348,11.394,4.346,15.741,0l15.741-15.742c4.348-4.346,4.348-11.393,0-15.741
		C102.115,401.191,95.068,401.191,90.722,405.537z"/>
	<path style="fill:#FFC865;" d="M445.217,256c0,104.501-84.716,189.217-189.217,189.217S66.783,360.501,66.783,256
		S151.499,66.783,256,66.783S445.217,151.499,445.217,256z"/>
</g>
<path style="fill:#BCA884;" d="M305.46,300.985c0,0-1.429,1.429-3.487,2.361l-99.956,42.838c-3.534,1.515-7.24,2.252-10.909,2.252
	c-7.147,0.001-14.148-2.799-19.447-8.097c-8.018-8.018-10.312-19.935-5.846-30.356l42.838-99.955c0.772-1.899,2.51-3.636,2.52-3.645
	L407.775,9.78C414.081,3.474,422.467,0,431.386,0c8.92,0,17.304,3.474,23.611,9.78l47.222,47.222
	c6.306,6.307,9.78,14.692,9.78,23.611c0,8.92-3.474,17.304-9.78,23.611L305.46,300.985z"/>
<path style="fill:#85BA9E;" d="M319.305,287.14l-94.445-94.445L407.775,9.78C414.081,3.474,422.467,0,431.386,0
	c8.92,0,17.304,3.474,23.611,9.78l47.222,47.222c6.306,6.307,9.78,14.692,9.78,23.611c0,8.92-3.474,17.304-9.78,23.611
	L319.305,287.14z"/>
<path style="fill:#739B85;" d="M478.609,33.391l23.611,23.611c6.306,6.307,9.78,14.692,9.78,23.611c0,8.92-3.474,17.304-9.78,23.611
	L319.305,287.14l-47.223-47.223L478.609,33.391z"/>
<path style="fill:#967A56;" d="M267.13,111.304c0,6.147-4.983,11.13-11.13,11.13c-73.648,0-133.565,59.917-133.565,133.565
	c0,21.752,5.06,42.49,15.039,61.639c2.842,5.451,0.726,12.173-4.726,15.014c-1.643,0.857-3.403,1.262-5.134,1.262
	c-4.016,0-7.895-2.179-9.879-5.988c-11.488-22.042-17.56-46.914-17.56-71.927c0-85.923,69.904-155.826,155.826-155.826
	C262.147,100.174,267.13,105.157,267.13,111.304z M165.817,309.981c-4.467,10.423-2.173,22.338,5.846,30.356
	c5.299,5.298,12.299,8.097,19.447,8.097c3.667,0,7.374-0.737,10.909-2.252l46.255-19.823l-62.632-62.632L165.817,309.981z"/>
</svg>